<svg width="340" height="340" viewBox="0 0 340 340" fill="none" xmlns="http://www.w3.org/2000/svg">
<path d="M243.098 0.130859C268.781 0.52849 284.375 2.13052 297.029 8.57812C311.837 16.1233 323.877 28.1626 331.422 42.9707C340 59.8055 340 81.8438 340 125.92V214.08C340 258.156 340 280.194 331.422 297.029C323.877 311.837 311.837 323.877 297.029 331.422C280.194 340 258.156 340 214.08 340H125.92C81.8438 340 59.8055 340 42.9707 331.422C28.1626 323.877 16.1233 311.837 8.57812 297.029C0.000343504 280.194 0 258.156 0 214.08V125.92C0 81.8438 0.000343009 59.8055 8.57812 42.9707C16.1233 28.1626 28.1626 16.1233 42.9707 8.57812C55.6247 2.1306 71.2186 0.528516 96.9014 0.130859C98.5324 0.323917 100.803 0.803309 102 2C103.999 3.9992 104 5.99841 104 6V15.4004C104 24.3609 104 28.8411 105.744 32.2637C107.278 35.2743 109.726 37.7219 112.736 39.2559C116.159 40.9997 120.639 41 129.6 41H210.4C219.361 41 223.841 40.9997 227.264 39.2559C230.274 37.7219 232.722 35.2743 234.256 32.2637C236 28.8411 236 24.3609 236 15.4004V6C236 5.99841 236.001 3.9992 238 2C239.196 0.803545 241.467 0.323992 243.098 0.130859ZM50 249C45.0294 249 41 253.029 41 258C41 262.971 45.0294 267 50 267H215C219.971 267 224 262.971 224 258C224 253.029 219.971 249 215 249H50ZM50 199C45.0294 199 41 203.029 41 208C41 212.971 45.0294 217 50 217H290C294.971 217 299 212.971 299 208C299 203.029 294.971 199 290 199H50ZM50 148C45.0294 148 41 152.029 41 157C41 161.971 45.0294 166 50 166H290C294.971 166 299 161.971 299 157C299 152.029 294.971 148 290 148H50ZM50 98C45.0294 98 41 102.029 41 107C41 111.971 45.0294 116 50 116H290C294.971 116 299 111.971 299 107C299 102.029 294.971 98 290 98H50Z" fill="white"/>
</svg>
